<?xml version="1.0" encoding="utf-8"?>
<!-- Generator: Adobe Illustrator 21.0.0, SVG Export Plug-In . SVG Version: 6.00 Build 0)  -->
<svg version="1.1" id="Layer_1" xmlns="http://www.w3.org/2000/svg" xmlns:xlink="http://www.w3.org/1999/xlink" x="0px" y="0px"
	 viewBox="0 0 100 100" style="enable-background:new 0 0 100 100;" xml:space="preserve">
<style type="text/css">
	.st0{fill:#B2B2B2;}
</style>
<title>Icon_Social_Facebook</title>
<path class="st0" d="M98,0H2C0.9,0,0,0.9,0,2v96c0,1.1,0.9,2,2,2h96c1.1,0,2-0.9,2-2V2C100,0.9,99.1,0,98,0z M62.6,50h-8.3v29.5
	H42.1V50h-5.8V39.6h5.8v-6.7c0-4.8,2.3-12.4,12.4-12.4h9.1v10.1H57c-1.1,0-2.6,0.5-2.6,2.8v6.1h9.3L62.6,50z"/>
</svg>
