<svg xmlns="http://www.w3.org/2000/svg" width="38" height="38" viewBox="0 0 38 38">
    <g fill="none" fill-rule="evenodd">
        <g fill="#FFF" fill-rule="nonzero">
            <g>
                <path d="M31.067 28.125l-5.825-5.905c.99-1.597 1.564-3.484 1.564-5.51 0-5.731-4.583-10.377-10.236-10.377-5.654 0-10.237 4.646-10.237 10.377 0 5.731 4.583 10.376 10.237 10.376 2.174 0 4.189-.69 5.846-1.86l5.755 5.834c.4.405.924.607 1.448.607.524 0 1.048-.202 1.448-.607.8-.81.8-2.125 0-2.935zm-14.497-4.4c-3.822 0-6.92-3.14-6.92-7.015 0-3.874 3.098-7.014 6.92-7.014 3.821 0 6.919 3.14 6.919 7.014s-3.098 7.014-6.92 7.014z" transform="translate(-990 -52) translate(990 52)"/>
            </g>
        </g>
    </g>
</svg>
