<?xml version="1.0" encoding="utf-8"?>
<!-- Generator: Adobe Illustrator 21.0.0, SVG Export Plug-In . SVG Version: 6.00 Build 0)  -->
<svg version="1.1" id="Layer_1" xmlns="http://www.w3.org/2000/svg" xmlns:xlink="http://www.w3.org/1999/xlink" x="0px" y="0px"
	 viewBox="0 0 100 100" style="enable-background:new 0 0 100 100;" xml:space="preserve">
<style type="text/css">
	.st0{fill:#E1131C;}
</style>
<title>Icon_Social_YouTube</title>
<path class="st0" d="M51.2,43.5l-8.5-4.4l-0.9-0.5v21.6l0.9-0.5l9.4-4.9l9.4-4.9l1.1-0.6l-1.1-0.6L51.2,43.5z"/>
<path class="st0" d="M98,0H2C0.9,0,0,0.9,0,2v96c0,1.1,0.9,2,2,2h96c1.1,0,2-0.9,2-2V2C100,0.9,99.1,0,98,0C98,0,98,0,98,0z
	 M80.2,50L80.2,50c0,2.3,0,4.7-0.1,7.1c-0.1,2.4-0.4,4.7-0.9,7c-0.4,1.6-1.2,3.1-2.5,4.3c-1.2,1.1-2.8,1.8-4.4,2
	c-3.7,0.4-7.4,0.6-11.1,0.7s-7.4,0.1-11.1,0.1s-7.4,0-11.1-0.1s-7.4-0.3-11.1-0.7c-1.7-0.2-3.2-0.9-4.4-2c-1.2-1.1-2.1-2.6-2.5-4.3
	c-0.5-2.3-0.8-4.6-0.9-7c-0.1-2.4-0.1-4.8-0.1-7.1s0-4.7,0.1-7.1c0.1-2.4,0.4-4.7,0.9-7c0.4-1.6,1.2-3.1,2.5-4.3
	c1.2-1.1,2.8-1.8,4.5-2c3.7-0.4,7.4-0.6,11.1-0.7s7.4-0.1,11.1-0.1s7.4,0,11.1,0.1c3.7,0.1,7.4,0.3,11.1,0.7c1.7,0.2,3.2,0.9,4.5,2
	l0,0c1.2,1.1,2.1,2.6,2.5,4.3C80.2,40.4,80.2,45.3,80.2,50L80.2,50L80.2,50L80.2,50z"/>
</svg>
